<svg xmlns="http://www.w3.org/2000/svg" viewBox="0 0 368.97 216"><defs><style>.cls-1{fill:#fff;stroke:#000;stroke-miterlimit:10;}</style></defs><title>saina-text</title><g id="Layer_2" data-name="Layer 2"><g id="Layer_1-2" data-name="Layer 1"><path class="cls-1" d="M346.67,153.5l18-48s7-15,2-22c-2.78-3.89-8.33-5.31-12.71-5.8a18.82,18.82,0,0,0-11.4,2.36c-3.77,2.14-8.62,5.47-10.89,9.44-4,7-9,23-9,23h-85l14-41s8-17,2-26a19.79,19.79,0,0,0-10.33-7.58,14.7,14.7,0,0,0-12.91,1.81c-3.4,2.29-7.6,5.53-9.76,8.77-4,6-11,24-11,24l-27,81Z"/><path class="cls-1" d="M161.67,153.5l14-38s7-16,5-27-15-12-15-12-11,1-15,9-10,25-10,25h-30s6-12,5-23a10.79,10.79,0,0,0-5.93-9,14.4,14.4,0,0,0-12.66-.28c-3.29,1.48-7.63,3.89-10.41,7.23-5,6-11,25-11,25h-25l12-34s8-16,4-29-22-7-22-7-10,5-13,13-8,22-8,22l-23,78Z"/><circle class="cls-1" cx="102.67" cy="16.5" r="16"/><rect class="cls-1" x="77.67" y="180.5" width="65" height="35" rx="17.5"/></g></g></svg>