<svg id="Layer_1" data-name="Layer 1" xmlns="http://www.w3.org/2000/svg" viewBox="0 0 254 254"><defs><style>.cls-1{fill:#fff;}</style></defs><title>saina-logo-white</title><path class="cls-1" d="M214.67,1H41.33A40.32,40.32,0,0,0,1,41.33V214.67A40.34,40.34,0,0,0,29.38,253.2l59-190.45a14.1,14.1,0,0,1,13.47-9.93h2.59a13.45,13.45,0,0,1,12.94,9.78l33.39,117.52L194.58,51.93,174,46l44-33,20,51-21.72-6.28L168.13,207a14.52,14.52,0,0,1-14,10.74h-5.06a14.87,14.87,0,0,1-14.33-10.9L104.48,97.67,57,255H214.67A40.32,40.32,0,0,0,255,214.67V41.33A40.32,40.32,0,0,0,214.67,1ZM49.15,115,29,53H69.3ZM187,218l20.15-62,20.15,62Z" transform="translate(-1 -1)"/></svg>